<svg xmlns="http://www.w3.org/2000/svg" width="177" height="48" viewBox="0 0 177 48"><g fill="none"><path fill="#FFF" d="M98 41h.9l1.567 5.656 1.65-5.27h.757l1.648 5.27L106.09 41h.91l-2.022 7h-.87l-1.638-5.208L100.81 48h-.79zm15.412 5.26h-2.814l-.62 1.74H109l2.66-7h.69l2.65 7h-1.03l-.558-1.74zm-.288-.79L112 42.343l-1.124 3.125h2.248zm3.876.622l.9-.222c.08.817.826 1.426 1.685 1.373.932 0 1.43-.454 1.43-1.09 0-.637-.424-1.01-1.6-1.424-1.462-.537-1.98-1.01-1.98-1.95.008-.51.243-.996.647-1.333a1.96 1.96 0 0 1 1.47-.434c.882-.042 1.71.407 2.12 1.15l-.763.455a1.49 1.49 0 0 0-1.346-.818 1.094 1.094 0 0 0-.79.24.993.993 0 0 0-.365.71c0 .565.454.868 1.556 1.272 1.557.565 2.034 1.1 2.034 2.02 0 1.17-.89 1.948-2.362 1.948-1.26.11-2.403-.712-2.638-1.898zM125 41h.86v3h3.3v-3h.84v7h-.87v-3.125h-3.3V48H125zm8.11 0h.82v7h-.86zm9.89 0v7h-.935l-3.19-5.47V48H138v-7h.925l3.21 5.448V41zm9 3.33v3.543h-.66l-.12-.934a2.317 2.317 0 0 1-2.12 1.053c-1.92 0-3.1-1.455-3.1-3.513s1.1-3.473 3.1-3.473a2.83 2.83 0 0 1 2.87 1.907l-.79.31a2 2 0 0 0-2.08-1.394c-1.51 0-2.29 1.004-2.29 2.64 0 1.636.74 2.7 2.3 2.7a1.806 1.806 0 0 0 1.443-.492c.386-.37.59-.89.557-1.425v-.18h-1.58v-.744H152zm4.514-2.507H154V41h6v.823h-2.514V48h-.972zM162 44.5c0-2.102 1.41-3.5 3.494-3.5 2.084 0 3.506 1.398 3.506 3.5 0 2.102-1.422 3.5-3.506 3.5-2.083 0-3.494-1.398-3.494-3.5zm6.037 0c0-1.63-.997-2.675-2.543-2.675-1.545 0-2.486 1.086-2.486 2.675 0 1.59.986 2.675 2.53 2.675 1.547 0 2.5-1.046 2.5-2.675zM177 41v7h-.943l-3.185-5.47V48H172v-7h.943l3.195 5.448V41zM58 7h18v3.832H62.18v7.405h12.696v3.833H62.18v8.098H76V34H58zm48.874 18.66h-13c.148 2.948 1.912 4.844 5.072 4.844a5.87 5.87 0 0 0 4.725-2.084l2.71 2.314a9.483 9.483 0 0 1-7.476 3.26c-6.12 0-8.904-4.396-8.904-9.377C90 19.637 92.71 15 98.6 15s8.4 4.25 8.4 9.055a12.74 12.74 0 0 1-.126 1.604zm-3.612-3.127a4.308 4.308 0 0 0-1.367-3.197 4.378 4.378 0 0 0-3.295-1.168c-2.527-.036-4.623 1.932-4.725 4.438l9.387-.073zM85.19 30.515a1.223 1.223 0 0 1-1.064-.372 1.353 1.353 0 0 1-.356-1.113V7H80v22.297C80 32.504 81.645 34 83.985 34A8.747 8.747 0 0 0 88 32.93a12.095 12.095 0 0 1-1.48-2.725c-.422.188-.873.293-1.33.31zM108 15h4.407l5.093 13.873L122.647 15H127l-7.824 19h-3.34zm36 7.11v11.558h-3.66l-.315-2.616c-1.388 1.947-3.737 3.06-6.197 2.94-4.084 0-6.818-2.346-6.818-5.858-.124-1.858.915-3.61 2.646-4.46a13.597 13.597 0 0 1 5.85-.928h4.486v-.636a3.452 3.452 0 0 0-1.116-2.775 3.794 3.794 0 0 0-2.935-.977c-2.2.027-4.243 1.102-5.445 2.866l-2.92-2.345c1.98-2.505 5.096-3.947 8.377-3.878 5.01-.052 8.048 2.627 8.048 7.108zm-4.008 3.648v-.105h-4.02c-2.177 0-3.353.188-4.094.75a1.988 1.988 0 0 0-.85 1.783c0 1.574 1.362 2.543 3.54 2.543a5.298 5.298 0 0 0 3.833-1.367 4.838 4.838 0 0 0 1.592-3.605zM158 17.84v-3.23h-4.758V7l-4.055 2.928v4.737H146v3.23h3.187v11.368c0 3.23 1.77 4.737 4.286 4.737h.604a10.043 10.043 0 0 0 3.714-1.077c-.552-.72-1.016-1.5-1.383-2.325-.066-.15-.143-.29-.198-.43a4.07 4.07 0 0 1-1.43.322h-.165a1.332 1.332 0 0 1-1.04-.427 1.274 1.274 0 0 1-.322-1.058V17.84H158zm18.863 7.82h-13c.16 2.948 1.923 4.844 5.073 4.844a5.87 5.87 0 0 0 4.735-2.084l2.71 2.314a9.483 9.483 0 0 1-7.476 3.26c-6.12 0-8.904-4.396-8.904-9.377 0-4.98 2.7-9.617 8.6-9.617 5.9 0 8.4 4.25 8.4 9.055a12.74 12.74 0 0 1-.137 1.604zm-3.6-3.127a4.32 4.32 0 0 0-1.37-3.193 4.388 4.388 0 0 0-3.293-1.172c-2.53-.037-4.628 1.93-4.736 4.438l9.398-.073z"/><path fill="#81CBC4" d="M17.785 23.58v-.094l-5.928-.16-5.93-.168L0 23v.58A22.877 22.877 0 0 0 .644 29l5.8-1.363 5.778-1.33L18 24.964a5.815 5.815 0 0 1-.215-1.384z"/><path fill="#FFD550" d="M22.11 11.92L21.22 6a17.9 17.9 0 0 0-9.226 4.33A18.103 18.103 0 0 0 8 15.382l5.297 2.803L18.593 21c.332-.644.78-1.22 1.325-1.7A5.977 5.977 0 0 1 23 17.84l-.89-5.92z"/><path fill="#27A79A" d="M45.747 16l-5.586 1.926-5.574 1.916L29 21.77c.206.602.31 1.235.31 1.872-.003.38-.04.758-.107 1.13l5.8 1.077 5.8 1.075L46.6 28c.74-4.008.447-8.14-.854-12z"/><path fill="#FFD550" d="M26 28.247L28.324 34A12.405 12.405 0 0 0 34 29.37L28.838 26A6.095 6.095 0 0 1 26 28.247z"/><path fill="#F05323" d="M18.81 27l-4.4 3.785L10 34.57c2.558 2.806 5.995 4.714 9.78 5.43l1.157-5.605L22 28.79A5.895 5.895 0 0 1 18.81 27z"/><path fill="#F36F21" d="M26.438 0l-.806 5.854-.816 5.853L24 17.56a5.9 5.9 0 0 1 1.557.44l2.148-5.51 2.147-5.513L32 1.477A23.786 23.786 0 0 0 26.438 0z"/></g></svg>